<svg  xmlns="http://www.w3.org/2000/svg" width="265" height="265" fill="none">
                    <path d="M265 132.5C265 205.667 205.667 265 132.5 265C59.3328 265 0 205.667 0 132.5C0 59.3327 59.3328 0 132.5 0C205.667 0 265 59.3327 265 132.5Z" fill="#00CDBE"/>
                    <path fill-rule="evenodd" clip-rule="evenodd" d="M110.319 89.2109C96.9394 89.2109 86.125 107.235 86.125 129.416C86.125 151.596 96.9719 169.62 110.319 169.62C123.699 169.62 134.546 151.596 134.546 129.416C134.546 107.235 123.699 89.2109 110.319 89.2109Z" fill="#C29B5B"/>
                    <path fill-rule="evenodd" clip-rule="evenodd" d="M114.168 116.82L124.853 117.502C133.589 117.502 142.032 117.372 150.833 116.82L152.652 130.655C153.593 137.832 155.737 142.736 163.239 143.742C182.269 146.243 194.058 149.393 202.437 161.734C208.867 171.184 214.225 185.603 212.667 197.067C210.491 212.85 200.585 219.118 186.751 223.892C185.712 224.249 184.608 224.606 183.503 224.964C169.312 239.61 95.7223 239.61 81.5305 224.964C80.4263 224.639 79.3546 224.282 78.2829 223.892C64.4484 219.086 54.5433 212.818 52.3674 197.067C50.7761 185.571 56.1671 171.184 62.5972 161.734C70.9434 149.426 82.7645 146.243 101.763 143.742C109.297 142.736 111.44 137.832 112.382 130.655L114.168 116.82Z" fill="#EEC18F"/>
                    <path d="M74.1261 151.02C69.612 153.553 65.8124 156.93 62.5648 161.736C56.1347 171.187 50.7762 185.606 52.335 197.07C54.5108 212.853 64.4159 219.121 78.2505 223.895C79.2897 224.252 80.3938 224.609 81.498 224.966C95.6898 239.613 169.279 239.613 183.471 224.966C184.575 224.641 185.647 224.284 186.719 223.895C200.553 219.088 210.458 212.82 212.634 197.07C214.225 185.573 208.834 171.187 202.404 161.736C199.157 156.93 195.357 153.553 190.843 151.02C174.313 157.58 154.178 161.412 132.485 161.412C110.791 161.412 90.6886 157.547 74.1261 151.02Z" fill="#007382"/>
                    <path fill-rule="evenodd" clip-rule="evenodd" d="M166.041 144.127C183.415 146.596 194.489 150.038 202.413 161.729C208.843 171.18 214.202 185.599 212.643 197.063C210.467 212.846 200.562 219.113 186.728 223.887C185.688 224.244 184.584 224.602 183.48 224.959C169.288 239.605 95.6988 239.605 81.507 224.959C80.4029 224.634 79.3312 224.277 78.2595 223.887C64.4249 219.081 54.5199 212.813 52.344 197.063C50.7527 185.566 56.1437 171.18 62.5739 161.729C70.5953 149.908 81.7669 146.531 99.4336 144.062L119.926 197.322L132.461 226.42L144.51 197.744L166.041 144.127Z" fill="#E1EFF9"/>
                    <path fill-rule="evenodd" clip-rule="evenodd" d="M75.8672 223.012C77.6533 223.792 79.5044 224.506 81.453 225.188L80.6411 206.028C79.7318 184.529 80.1539 185.016 77.7832 206.06L75.8672 223.012Z" fill="#B3D3E5"/>
                    <path fill-rule="evenodd" clip-rule="evenodd" d="M189.112 223.012C187.391 223.792 185.54 224.506 183.656 225.188L184.436 206.028C185.312 184.529 184.923 185.016 187.228 206.06L189.112 223.012Z" fill="#B3D3E5"/>
                    <path fill-rule="evenodd" clip-rule="evenodd" d="M104.263 104.677C107.641 113.867 112.772 120.85 119.137 126.273C130.893 136.276 134.693 136.211 146.449 126.176C152.911 120.655 158.075 113.51 161.42 104.06C162.199 105.164 163.563 104.644 164.798 103.735C166.194 102.696 167.136 101.332 167.915 99.7082C170.058 95.324 171.033 89.1536 168.824 86.3283C168.078 85.354 167.071 84.9318 165.999 84.8994C166.876 81.327 166.291 78.0795 167.038 73.9226C176.943 20.0458 87.5058 21.0201 98.7748 73.7278C99.6516 77.8847 98.4501 81.4245 99.3918 84.9968C98.4825 85.1592 97.6707 85.5813 97.0212 86.3283C94.5531 89.1861 95.6247 95.324 98.0279 99.7082C98.9048 101.332 99.9763 102.696 101.535 103.735C102.477 104.32 103.451 104.742 104.263 104.677Z" fill="#F8D9A7"/>
                    <path fill-rule="evenodd" clip-rule="evenodd" d="M97.6403 178.953L106.831 165.898L91.9571 160.215L83.7734 146.868L103.908 142.094L132.454 226.4L97.6403 178.953Z" fill="#FBFDFF"/>
                    <path fill-rule="evenodd" clip-rule="evenodd" d="M167.37 178.953L158.146 165.898L173.02 160.215L181.204 146.868L161.069 142.094L132.523 226.4L167.37 178.953Z" fill="#FBFDFF"/>
                    <path fill-rule="evenodd" clip-rule="evenodd" d="M99.8291 87.336C97.9455 81.263 96.9062 74.7679 96.9062 68.2079C96.9062 48.0731 106.487 35.1154 121.588 30.6987C129.025 28.5228 136.949 28.5228 144.385 30.6337C159.714 34.953 168.937 48.0731 168.807 68.2404C168.775 74.7355 167.735 81.1981 165.884 87.2385C165.949 86.6215 166.014 86.0045 166.047 85.3874C161.045 70.2863 148.055 59.5045 132.857 59.5045C117.626 59.5045 104.636 70.3188 99.6343 85.4524C99.7317 86.0694 99.7642 86.7189 99.8291 87.336ZM166.177 83.6338C166.209 83.1141 166.241 82.5945 166.274 82.1074C166.241 82.627 166.209 83.1141 166.177 83.6338ZM166.306 81.1981C166.306 80.7759 166.339 80.3537 166.339 79.964C166.339 80.3537 166.339 80.7759 166.306 81.1981Z" fill="#C29B5B"/>
                    <path fill-rule="evenodd" clip-rule="evenodd" d="M140.283 60.3881C139.439 60.1932 138.627 60.0309 137.75 59.901L140.088 36.1289L140.283 60.3881Z" fill="#F8D9A7"/>
                    <path fill-rule="evenodd" clip-rule="evenodd" d="M149.844 206.285H177.416V225.9H149.844V206.285Z" fill="#FBFDFF"/>
                    <path fill-rule="evenodd" clip-rule="evenodd" d="M161.307 208.395H165.951V213.818H171.179V218.527H165.951V223.983H161.307V218.527H156.078V213.818H161.307V208.395Z" fill="#009FE3"/>
                    </svg>