<svg  width="265" height="265" fill="none" xmlns="http://www.w3.org/2000/svg">
                      <path fill-rule="evenodd" clip-rule="evenodd" d="M132.5 0C205.673 0 265 59.3269 265 132.5C265 205.673 205.673 265 132.5 265C59.3269 265 0 205.673 0 132.5C0 59.3269 59.3269 0 132.5 0Z" fill="#00CDBE"/>
                      <path fill-rule="evenodd" clip-rule="evenodd" d="M174.763 89.6562C175.258 90.0326 175.734 90.4288 176.229 90.8052C177.596 91.6173 178.863 92.5285 180.052 93.4793C182.092 95.1631 184.172 103.76 179.359 109.108C173.099 116.061 175.179 125.649 166.859 116.992C167.87 111.624 168.88 106.256 169.89 100.888L174.763 89.6562Z" fill="#F5C794"/>
                      <path fill-rule="evenodd" clip-rule="evenodd" d="M171.819 119.963C169.937 113.149 174.771 101.145 177.801 91.7751C176.217 90.9827 173.661 90.3687 172.493 92.2109C172.413 92.3297 168.709 114.179 168.273 116.199C168.689 118.438 169.165 119.923 171.819 119.963Z" fill="#CF966B"/>
                      <path fill-rule="evenodd" clip-rule="evenodd" d="M87.4535 92.0547C86.9187 92.3716 86.4037 92.7084 85.8689 93.0253C84.4228 93.679 85.5916 93.5403 84.3436 94.4119C78.1633 98.6708 78.0048 104.059 81.9071 110.1C84.72 114.478 81.8873 116.776 87.9686 122.283C90.1871 124.283 90.7418 122.837 94.9016 119.569C94.4856 114.122 94.0895 108.674 93.6933 103.207L87.4535 92.0547Z" fill="#F5C794"/>
                      <path fill-rule="evenodd" clip-rule="evenodd" d="M89.997 123.19C91.9977 114.157 85.1043 103.936 85.342 94.2891C87.0653 97.7952 90.2941 101.579 92.0373 105.085C92.5523 110.017 93.0872 114.949 93.6022 119.902C92.0967 121.051 91.5025 122.061 89.997 123.19Z" fill="#CF966B"/>
                      <path fill-rule="evenodd" clip-rule="evenodd" d="M167.716 50.0713L132.932 42.1875L93.6511 53.3794L88.7188 91.1346C89.9667 100.445 91.1948 109.775 92.4428 119.085C92.3437 132.753 100.188 138.774 110.587 142.914C127.841 149.788 134.695 148.421 151.175 141.567C155.672 139.705 159.911 137.368 163.001 133.129C165.556 129.603 166.448 124.057 167.854 117.698L172.509 78.5562L167.716 50.0713Z" fill="#EBC299"/>
                      <path fill-rule="evenodd" clip-rule="evenodd" d="M103.034 138.656C107.055 149.828 105.589 157.157 104.837 165.754C104.896 167.894 92.8327 171.915 94.7937 175.698C99.6072 184.969 123.1 203.054 133.044 203.153C139.561 203.212 166.679 188.019 172.761 178.848C174.543 176.174 170.463 173.262 166.521 170.508C162.718 167.854 161.371 166.824 160.479 164.982C155.923 155.434 157.904 145.054 160.123 135.328C141.007 136.596 122.149 137.368 103.034 138.656Z" fill="#F5C794"/>
                      <path fill-rule="evenodd" clip-rule="evenodd" d="M93.3705 75.2078L91.8255 90.2623C91.251 100.127 90.5379 108.764 97.2333 116.727C100.383 120.451 99.8876 122.174 108.544 121.164C119.161 119.916 124.034 123.481 131.562 123.481C138.891 123.481 144.239 119.658 153.312 121.164C161.889 122.59 161.473 120.451 164.602 116.727C167.039 113.854 168.643 109.061 169.535 104.109L169.475 104.208C167.296 89.054 172.031 85.845 165.533 64.1149C163.731 59.3212 159.73 53.5173 150.974 54.1314C126.293 65.4817 90.8747 40.3644 93.3705 75.2078ZM83.7237 65.561C86.2989 34.3623 100.759 22.18 132.077 20.3378C140.951 19.8228 150.4 24.6759 157.927 34.9368C172.09 35.7688 178.785 48.4067 180.033 69.4831C179.439 86.0431 177.399 88.6182 173.794 102.88C173.021 105.257 172.387 107.476 171.872 109.576C169.119 120.768 169.357 128.414 164.385 137.347C157.135 150.302 144.932 156.463 132.037 156.403C118.765 156.344 104.047 148.638 96.6786 136.258C95.2722 135.684 90.2606 115.32 87.1111 101.89C83.6446 87.1326 82.357 82.3191 83.7237 65.561ZM120.568 139.408C113.338 135.901 108.207 131.187 114.546 127.582C116.685 126.354 120.568 127.78 124.926 127.899C126.471 127.938 129.719 127.641 130.928 126.889C132.136 127.641 135.405 127.938 136.93 127.899C141.288 127.8 144.893 127.126 147.032 128.335C152.559 131.504 148.082 135.505 142.021 138.794C130.393 145.152 131.879 144.895 120.568 139.408Z" fill="#735440"/>
                      <path fill-rule="evenodd" clip-rule="evenodd" d="M105.789 150.424C108.205 152.464 118.843 159.774 130.649 159.576C144.574 159.358 154.855 150.523 157.846 147.988L158.737 142.738C153.31 146.442 136.928 154.901 130.668 154.564C124.746 154.802 107.532 148.324 104.977 146.126L105.789 150.424Z" fill="#CF966B"/>
                      <path fill-rule="evenodd" clip-rule="evenodd" d="M165.502 169.406C158.727 174.715 151.953 182.639 145.178 189.889L144.327 169.109H121.448L116.06 186.482C109.899 180.737 103.719 174.973 98.1725 170.615C83.7914 176.676 69.3905 179.113 55.0094 185.154C43.2035 191.077 38.1127 197.356 31.5164 211.143C31.3778 211.955 31.0608 213.56 30.625 215.679C43.8572 231.685 60.7738 244.521 80.0872 252.9C90.2292 255.713 100.371 258.545 110.513 261.358C122.28 264.013 137.235 263.993 154.389 262.151L185.172 253.019C204.882 244.521 222.115 231.388 235.486 214.986C234.892 211.757 234.396 209.222 234.02 207.914C229.603 189.968 191.669 181.43 172.494 172.497C170.236 171.447 167.899 170.397 165.502 169.406Z" fill="#005E6A"/>
                      <path fill-rule="evenodd" clip-rule="evenodd" d="M121.188 187.425L126.179 172.945L133.093 173.044L138.045 187.94L133.449 194.042L136.698 262.579H124.02L126.14 193.903L121.188 187.425Z" fill="black"/>
                      <path fill-rule="evenodd" clip-rule="evenodd" d="M163.95 155.279C162.682 150.922 160.543 151.199 157.73 152.625C154.204 158.092 139.466 167.046 131.562 168.373C132.969 180.179 140.873 186.122 142.279 197.927C150.579 188.36 158.879 178.773 167.159 169.205C164.267 164.312 165.792 161.163 163.95 155.279Z" fill="#007382"/>
                      <path fill-rule="evenodd" clip-rule="evenodd" d="M98.2217 157.592C99.4895 153.234 101.629 153.511 104.442 154.938C107.968 160.405 121.675 168.17 129.579 169.497C128.172 181.303 121.081 186.453 119.675 198.259C111.375 188.692 102.401 182.016 94.1016 172.429C96.9936 167.556 96.3993 163.455 98.2217 157.592Z" fill="#007382"/>
                      <path fill-rule="evenodd" clip-rule="evenodd" d="M137.237 166.515C135.038 167.427 132.106 168.219 130.383 168.516C131.789 180.322 138.564 186.7 139.97 198.506L166.712 172.715C166.058 172.379 160.056 175.39 156.213 177.569C143.892 184.561 144.229 172.3 146.032 168.041C148.627 161.88 156.352 159.681 158.135 154.373C158.432 153.461 137.177 166.832 137.237 166.515Z" fill="#007382"/>
                      <path fill-rule="evenodd" clip-rule="evenodd" d="M109.018 159.465C115.02 164.358 123.954 167.923 129.916 168.914C127.658 178.204 122.329 190.188 119.655 198.211C117.12 195.715 93.6464 174.202 94.6567 172.459C97.8062 167.032 114.307 193.674 112.009 164.991C111.989 164.556 108.939 159.881 109.018 159.465Z" fill="#007382"/>
                      <path fill-rule="evenodd" clip-rule="evenodd" d="M166.648 170.333C170.709 199.63 156.051 237.286 154.644 261.532C162.647 261.532 176.731 255.807 184.833 253.133C204.879 244.556 222.37 231.185 235.879 214.466C235.245 211.396 234.711 208.979 234.354 207.712C229.937 189.765 192.003 181.228 172.828 172.314C170.947 171.442 168.451 168.867 166.648 170.333ZM81.3125 253.41C60.0579 244.437 41.6359 230.076 27.75 212.03C34.3067 198.382 39.3975 192.142 51.144 186.239C65.5251 180.198 79.0742 177.741 93.4751 171.7C90.3255 184.08 106.192 253.45 106.846 260.581C99.9921 260.561 87.2353 255.47 81.3125 253.41Z" fill="#EDEBED"/>
                      <path fill-rule="evenodd" clip-rule="evenodd" d="M86.7132 173.181C89.4864 171.2 92.3389 169.576 95.6469 169.477C94.8348 194.019 102.639 237.757 109.949 261.349C108.047 261.408 105.492 260.121 103.59 260.18L80.4141 201.784L89.5656 198.615L80.4141 195.981C82.5138 188.929 84.6135 180.213 86.7132 173.181Z" fill="white"/>
                      <path fill-rule="evenodd" clip-rule="evenodd" d="M175.184 172.333C172.451 170.352 169.638 168.728 166.369 168.629C167.162 193.172 159.496 238.415 152.266 262.007C154.128 262.066 156.683 260.779 158.545 260.838L181.384 201.769L172.371 198.599L181.384 195.965C179.324 188.933 177.244 179.385 175.184 172.333Z" fill="white"/>
                      <path fill-rule="evenodd" clip-rule="evenodd" d="M178.523 223.125H209.108V239.606C206.553 241.408 203.918 243.132 201.224 244.776H178.523V223.125Z" fill="white"/>
                      <path fill-rule="evenodd" clip-rule="evenodd" d="M188.703 221.941H198.924V226.141H188.703V221.941Z" fill="#000300"/>
                      </svg>